<?xml version="1.0" encoding="UTF-8"?>
<svg xmlns="http://www.w3.org/2000/svg" xmlns:xlink="http://www.w3.org/1999/xlink" width="500" height="500" viewBox="0 0 500 500">
<rect x="-50" y="-50" width="600" height="600" fill="rgb(100%, 100%, 100%)" fill-opacity="1"/>
<path fill="none" stroke-width="3" stroke-linecap="butt" stroke-linejoin="miter" stroke="rgb(0%, 0%, 0%)" stroke-opacity="1" stroke-dasharray="4 4" stroke-miterlimit="10" d="M 265 160 L 260 270 "/>
<path fill="none" stroke-width="3" stroke-linecap="butt" stroke-linejoin="miter" stroke="rgb(0%, 0%, 0%)" stroke-opacity="1" stroke-dasharray="4 4" stroke-miterlimit="10" d="M 160 300 L 260 270 "/>
<path fill="none" stroke-width="3" stroke-linecap="butt" stroke-linejoin="miter" stroke="rgb(0%, 0%, 0%)" stroke-opacity="1" stroke-dasharray="4 4" stroke-miterlimit="10" d="M 360 330 L 260 270 "/>
<path fill="none" stroke-width="4" stroke-linecap="butt" stroke-linejoin="miter" stroke="rgb(0%, 0%, 0%)" stroke-opacity="1" stroke-miterlimit="10" d="M 265 160 L 160 300 "/>
<path fill="none" stroke-width="4" stroke-linecap="butt" stroke-linejoin="miter" stroke="rgb(0%, 0%, 0%)" stroke-opacity="1" stroke-miterlimit="10" d="M 260 155 L 155 295 "/>
<path fill="none" stroke-width="4" stroke-linecap="butt" stroke-linejoin="miter" stroke="rgb(0%, 0%, 0%)" stroke-opacity="1" stroke-miterlimit="10" d="M 265 160 L 360 330 "/>
<path fill="none" stroke-width="4" stroke-linecap="butt" stroke-linejoin="miter" stroke="rgb(0%, 0%, 0%)" stroke-opacity="1" stroke-miterlimit="10" d="M 160 300 L 360 330 "/>
<path fill-rule="nonzero" fill="rgb(25.1%, 38.8%, 84.7%)" fill-opacity="1" d="M 280 270 C 280 281.046875 271.046875 290 260 290 C 248.953125 290 240 281.046875 240 270 C 240 258.953125 248.953125 250 260 250 C 271.046875 250 280 258.953125 280 270 Z M 280 270 "/>
<path fill-rule="nonzero" fill="rgb(22%, 59.6%, 14.9%)" fill-opacity="1" d="M 285 160 C 285 171.046875 276.046875 180 265 180 C 253.953125 180 245 171.046875 245 160 C 245 148.953125 253.953125 140 265 140 C 276.046875 140 285 148.953125 285 160 Z M 285 160 "/>
<path fill-rule="nonzero" fill="rgb(79.6%, 23.5%, 20%)" fill-opacity="1" d="M 180 300 C 180 311.046875 171.046875 320 160 320 C 148.953125 320 140 311.046875 140 300 C 140 288.953125 148.953125 280 160 280 C 171.046875 280 180 288.953125 180 300 Z M 180 300 "/>
<path fill-rule="nonzero" fill="rgb(58.4%, 34.5%, 69.8%)" fill-opacity="1" d="M 380 330 C 380 341.046875 371.046875 350 360 350 C 348.953125 350 340 341.046875 340 330 C 340 318.953125 348.953125 310 360 310 C 371.046875 310 380 318.953125 380 330 Z M 380 330 "/>
</svg>
